<svg width="59" height="42" viewBox="0 0 59 42" fill="none" xmlns="http://www.w3.org/2000/svg">
<g clip-path="url(#clip0_44_372)">
<path d="M6.05521 0.0539207C6.08217 0.121307 8.3149 4.76198 8.93935 6.04232C9.17745 6.53649 9.80639 7.91117 10.341 9.09717C10.8711 10.2832 11.536 11.7612 11.819 12.3811L12.3311 13.5132L12.2817 13.7378C12.2503 13.8906 12.2503 13.9939 12.2772 14.0478C12.385 14.2455 12.111 14.3533 11.8549 14.2185C11.6034 14.0883 10.7139 14.3623 10.7139 14.5734C10.7139 14.6723 10.4308 14.9014 9.98608 15.1619C9.58626 15.3955 9.4425 15.4989 9.52786 15.4989C9.54583 15.4989 9.6806 15.4225 9.83334 15.3282C10.3949 14.9733 10.4982 14.9643 9.98159 15.3147C9.59075 15.5842 9.19092 15.9886 9.03818 16.2716C8.97529 16.3884 8.88993 16.6444 8.8495 16.8331C8.80907 17.0263 8.7327 17.3767 8.68328 17.6103C8.63386 17.8439 8.53952 18.2393 8.46764 18.4863C8.30142 19.0838 8.21158 19.5241 8.15317 20.0138C8.12622 20.2339 8.04536 20.8224 7.97348 21.3166C7.62307 23.7739 7.62307 24.4927 7.99145 24.7308C8.05434 24.7757 8.10825 24.8431 8.10825 24.888C8.10825 24.933 8.1397 24.9914 8.17564 25.0228C8.26998 25.1037 8.26548 25.1261 8.06782 25.4181C7.8432 25.7461 7.73987 25.9617 7.61408 26.3436C7.55568 26.5188 7.43888 26.7794 7.35352 26.9276C7.26367 27.0803 7.09745 27.4128 6.98065 27.6733C6.86385 27.9339 6.64821 28.4056 6.49996 28.7291C6.12709 29.5332 5.61495 30.9753 5.4128 31.7839C5.32295 32.1568 5.20614 32.5386 5.15673 32.6375C5.10731 32.7363 4.96805 33.0508 4.84675 33.3338C4.72995 33.6168 4.54127 33.9717 4.43345 34.12C4.06058 34.6231 3.8674 35.0769 3.77306 35.6744C3.72814 35.9259 3.63829 36.2134 3.50352 36.5189C3.14412 37.3321 3.08123 37.6241 3.02732 38.7382C3.00036 39.2773 2.99138 39.731 3.00935 39.749C3.02732 39.7669 3.13514 39.7804 3.25643 39.7804C3.43164 39.7804 3.50352 39.758 3.60235 39.6636L3.72814 39.5468L4.41548 39.5693C4.86921 39.5828 5.1118 39.6052 5.12079 39.6412C5.12977 39.6681 5.16122 39.9556 5.18817 40.2836C5.2331 40.8496 5.24208 40.8856 5.39483 41.1102C5.48467 41.245 5.54308 41.3842 5.53409 41.4291C5.51163 41.5055 5.588 41.51 6.97167 41.51C7.88812 41.51 8.45866 41.492 8.51706 41.4651C8.56199 41.4381 8.63836 41.3438 8.68777 41.2494C8.81805 40.9934 9.05615 40.2162 9.09658 39.9242C9.12354 39.713 9.16846 39.6232 9.30773 39.4525C9.40656 39.3402 9.50989 39.2368 9.53684 39.2279C9.6222 39.2009 9.60423 39.7175 9.50539 40.0724C9.43352 40.3285 9.42902 40.3869 9.47844 40.3869C9.51438 40.3869 9.5638 40.3465 9.58626 40.3015C9.61321 40.2566 9.73451 40.0994 9.8603 39.9556C9.98159 39.8074 10.1703 39.5333 10.2736 39.3447C10.3949 39.1245 10.4937 38.9943 10.5431 38.9943C10.6599 38.9943 10.7183 38.846 10.6869 38.6259C10.651 38.3698 10.8307 37.9385 11.1945 37.3994C11.5539 36.8648 11.5854 36.8379 11.7247 36.9772C11.9538 37.2153 12.1964 37.9475 12.1964 38.4147C12.1964 38.7696 12.3671 38.7651 12.4884 38.4013C12.5468 38.226 12.5468 38.1632 12.5063 38.1137C12.4614 38.0598 12.4884 38.0104 12.6546 37.8352C12.7624 37.7184 12.9466 37.4713 13.0634 37.2871C13.1757 37.1029 13.4408 36.748 13.6564 36.501C13.872 36.2539 14.1955 35.8226 14.3797 35.5441C14.5639 35.27 14.7211 35.0409 14.7346 35.0409C14.7436 35.0409 14.8469 35.1892 14.9637 35.3644C15.2242 35.7687 16.3069 37.3321 16.6214 37.7588C16.7472 37.9295 17.0527 38.3159 17.2953 38.6124C17.5423 38.9089 17.9287 39.3941 18.1623 39.6906C18.6879 40.3599 18.7553 40.4094 19.227 40.4139C19.4247 40.4139 19.7571 40.4363 19.9638 40.4543L20.3411 40.4902L20.4939 40.8317C20.5837 41.0203 20.6646 41.2494 20.6736 41.3393L20.7005 41.51H22.21C23.6116 41.5055 23.7104 41.501 23.5847 41.4336C23.5128 41.3977 23.3555 41.3079 23.2432 41.2315C23.0321 41.1012 23.0006 41.0069 23.1219 40.8541C23.1713 40.7867 22.9782 40.6205 22.7221 40.5037C22.5649 40.4363 22.5289 40.3914 22.4885 40.2252C22.4121 39.9287 22.4301 39.7759 22.5514 39.5962C22.6907 39.3896 22.7041 39.1111 22.5783 39.0437C22.5155 39.0077 22.484 38.9224 22.4615 38.7157C22.4121 38.2575 22.201 37.5657 22.0393 37.3365C21.9943 37.2737 21.8506 36.8963 21.7203 36.501C21.59 36.1056 21.4148 35.6115 21.3339 35.4048C21.2486 35.1982 21.1812 35.014 21.1812 34.9915C21.1812 34.969 21.2261 34.9511 21.2845 34.9511C21.3384 34.9511 21.4867 34.9017 21.617 34.8433C21.909 34.704 22.1246 34.4299 22.1246 34.1919C22.1246 34.102 22.1516 33.9897 22.1875 33.9403C22.219 33.8909 22.2594 33.7785 22.2729 33.6932C22.2818 33.6078 22.3178 33.4147 22.3403 33.2664C22.3672 33.1182 22.4121 32.7543 22.4391 32.4578C22.4615 32.1613 22.5065 31.73 22.5289 31.5009C22.5739 31.0921 22.6502 29.8881 22.6862 29.0211C22.6952 28.7875 22.7176 28.4011 22.7311 28.1675C22.7446 27.9339 22.758 26.2627 22.7625 24.4523C22.767 21.1908 22.767 21.1683 22.8569 21.1414C22.9332 21.1234 22.9377 21.1099 22.8883 21.047C22.8434 20.9931 22.8254 20.7236 22.812 19.9778C22.803 19.4297 22.776 18.8367 22.7536 18.666C22.7266 18.4908 22.6862 18.0281 22.6637 17.6328C22.5963 16.5097 22.5514 16.3974 22.2145 16.3974C22.0932 16.3974 22.0033 16.4378 21.8641 16.5546L21.6799 16.7118L21.4867 16.5771C21.1408 16.3345 20.7993 16.339 20.6781 16.586C20.5657 16.8196 20.2558 17.1431 20.0446 17.2464C19.7571 17.3857 19.6403 17.3722 19.5055 17.1701C19.4381 17.0802 19.2764 16.8915 19.1372 16.7568C18.9979 16.622 18.8496 16.4288 18.8047 16.33C18.7598 16.2311 18.6565 16.0829 18.5756 15.9975C18.4004 15.8268 18.0051 15.5303 17.8927 15.4854C17.8478 15.4719 17.8119 15.4405 17.8119 15.418C17.8119 15.3955 17.7535 15.3506 17.6816 15.3192C17.5648 15.2743 17.5513 15.2518 17.5873 15.1619C17.6097 15.1035 17.6367 14.9553 17.6457 14.834C17.6547 14.7082 17.7086 14.542 17.767 14.4476C17.8658 14.2814 17.8658 14.2769 17.7939 13.9804C17.7086 13.63 17.6906 12.3362 17.767 12.2868C17.8029 12.2643 17.8029 12.2374 17.767 12.1969C17.74 12.1655 17.7086 12.0352 17.6996 11.9094C17.6906 11.7836 17.6726 11.6623 17.6547 11.6354C17.6412 11.6129 17.6681 11.5905 17.7175 11.5905C17.8119 11.5905 17.8433 11.5276 17.7759 11.4826C17.7535 11.4692 17.7131 11.3434 17.6816 11.1996C17.6502 11.0559 17.5603 10.8178 17.4794 10.6695C17.2953 10.3101 16.6573 9.6722 16.5315 9.72162C16.4642 9.74408 16.1048 9.58685 16.1048 9.53294C16.1048 9.51047 16.0284 9.47903 15.9385 9.46555C15.8442 9.45207 15.7094 9.41613 15.6331 9.38918C15.4489 9.31281 15.0985 9.30832 14.8065 9.3757C14.6762 9.40715 14.5459 9.42062 14.5234 9.40715C14.501 9.39367 14.4426 9.42062 14.3932 9.47453C14.3437 9.52844 14.2584 9.57337 14.2045 9.57337C14.1506 9.57786 14.0697 9.58235 14.0248 9.58685C13.9798 9.59134 13.9304 9.6138 13.9125 9.63626C13.8945 9.66322 13.7912 9.73959 13.6789 9.80248C13.27 10.0406 12.9286 10.5033 12.7354 11.0918C12.6681 11.294 12.6591 11.3838 12.695 11.577C12.7265 11.7522 12.7265 11.8375 12.6815 11.9139C12.6456 11.9813 12.6321 12.1341 12.6411 12.3362C12.6501 12.5833 12.6366 12.6642 12.5827 12.7091C12.5423 12.745 12.5108 12.8034 12.5108 12.8483C12.5108 12.8888 12.4749 12.9562 12.43 12.9966C12.3536 13.0685 12.2772 12.9157 10.8262 9.78002C9.46496 6.83299 7.73538 3.19413 6.58083 0.840096C6.31577 0.305496 6.14506 1.14441e-05 6.10014 1.14441e-05C6.0642 1.14441e-05 6.04174 0.0269661 6.05521 0.0539207ZM22.9108 41.0967C22.8973 41.1102 22.8614 41.0967 22.8299 41.0653C22.7895 41.0203 22.794 41.0158 22.8569 41.0428C22.9018 41.0563 22.9243 41.0832 22.9108 41.0967Z" fill="#253643"/>
<path d="M33.1265 6.53199C33.0816 6.62184 33.0906 6.67126 33.1625 6.79255C33.2613 6.95877 34.4877 8.58054 36.433 11.1188C37.1517 12.0577 38.0323 13.2077 38.3872 13.6794C38.9083 14.3668 40.566 16.5321 40.7277 16.7388C40.7547 16.7702 40.6828 16.9679 40.5435 17.2554C40.2515 17.8754 40.1662 18.2348 40.2246 18.657C40.247 18.8367 40.2695 19.1332 40.2695 19.3174C40.274 19.5016 40.2964 19.8835 40.3189 20.1665C40.3638 20.7191 40.3324 22.3408 40.274 22.5969C40.256 22.6823 40.238 22.8934 40.2335 23.0641C40.2291 23.2348 40.2156 23.3921 40.1976 23.4145C40.1841 23.4415 40.1662 23.7739 40.1527 24.1603C40.1347 24.8791 40.0943 25.1441 39.9775 25.3283C39.8876 25.4631 39.7933 25.9887 39.7573 26.5278C39.7484 26.676 39.7394 26.8063 39.7349 26.8198C39.7304 26.8333 39.7259 26.8557 39.7259 26.8692C39.7259 26.8827 39.7124 26.968 39.69 27.0579C39.6675 27.1567 39.672 27.2241 39.6945 27.2241C39.7214 27.2241 39.7169 27.269 39.6855 27.3184C39.6495 27.3858 39.6495 27.4263 39.6855 27.4442C39.7169 27.4667 39.7079 27.561 39.654 27.7407C39.6046 27.9025 39.5597 27.9878 39.5372 27.9519C39.5193 27.9249 39.4878 27.898 39.4608 27.898C39.4114 27.898 39.1778 28.3876 39.1823 28.482C39.1913 28.5673 39.0655 28.8054 38.9802 28.8683C38.9442 28.8953 38.9263 28.9402 38.9442 28.9672C38.9802 29.0256 38.5893 29.8701 38.486 29.9465C38.4456 29.978 38.3602 30.0094 38.3018 30.0094C38.2434 30.0094 38.1311 30.0768 38.0457 30.1621C37.9199 30.2879 37.893 30.3463 37.893 30.517C37.893 30.6249 37.9155 30.7821 37.9424 30.8585C37.9873 30.9843 37.9828 31.0112 37.902 31.0651C37.8526 31.1011 37.7807 31.2089 37.7447 31.3077C37.7043 31.4065 37.6504 31.4964 37.6279 31.5099C37.601 31.5278 37.5606 31.6626 37.5291 31.8109C37.4977 31.9636 37.4438 32.1029 37.3988 32.1343C37.3 32.2062 37.2506 32.5341 37.3 32.8037C37.3404 33.0103 37.3359 33.0148 37.1787 33.1406C36.3476 33.792 35.512 34.6186 34.5012 35.7822C33.4724 36.9682 33.131 37.4084 33.131 37.5477C33.131 37.651 33.2299 37.5657 33.8813 36.8828C34.901 35.8136 35.3098 35.4138 35.9163 34.9106C36.4824 34.4389 37.0349 34.0301 37.0664 34.0661C37.0754 34.075 36.9855 34.2727 36.8642 34.5063C36.7429 34.7399 36.6306 34.9735 36.6171 35.0274C36.5677 35.1892 36.1409 35.9484 36.0286 36.0742C35.8984 36.2224 35.6692 36.5728 35.5524 36.8019C35.3593 37.1793 34.2676 38.7831 33.2074 40.2431C32.7671 40.8496 32.3853 41.3842 32.3628 41.4291C32.3224 41.5055 32.7357 41.51 43.5939 41.51H54.8699L54.8474 40.8227C54.807 39.7085 54.6902 39.1335 54.3937 38.6483C54.2948 38.4821 54.2724 38.4013 54.2948 38.2979C54.3487 38.0464 54.3353 37.2153 54.2679 36.7211C54.1825 36.1416 54.1511 33.8954 54.223 33.7741C54.2589 33.7157 54.3173 33.8504 54.488 34.403C54.6093 34.7893 54.7261 35.1892 54.7486 35.288C54.8204 35.58 55.2966 36.7615 55.355 36.7795C55.4449 36.8109 55.5168 36.483 55.4898 36.164C55.4629 35.8585 55.3461 35.3734 55.2742 35.2835C55.2248 35.2251 55.0136 34.5198 54.6722 33.3113C54.5329 32.8172 54.3308 32.1208 54.2185 31.7614C54.1106 31.4021 53.9983 30.9348 53.9714 30.7282C53.913 30.2385 53.8411 29.96 53.5671 29.1334C53.3379 28.446 53.2436 28.0777 53.2975 28.0777C53.3155 28.0777 53.3874 28.1361 53.4592 28.2124C53.6344 28.3966 53.7378 28.3876 53.7782 28.19C53.7917 28.1046 53.7962 28.0058 53.7827 27.9743C53.7468 27.8755 53.4592 27.7632 53.2436 27.7632C53.0504 27.7632 53.037 27.7542 53.01 27.6149C52.992 27.5386 52.9651 27.4532 52.9516 27.4263C52.9157 27.3723 52.9022 27.2735 52.8797 26.9096C52.8573 26.5817 52.8573 26.5862 53.2571 26.3032C53.3919 26.2088 53.5671 26.0875 53.6389 26.0336C53.7153 25.9797 53.8366 25.9168 53.9085 25.9033C54.0837 25.8629 54.5239 25.5709 54.8025 25.3148C54.9238 25.2025 55.0406 25.1127 55.063 25.1127C55.081 25.1127 55.099 25.0857 55.1035 25.0543C55.108 25.0273 55.2427 24.8791 55.409 24.7308C55.7594 24.4118 56.1367 23.9896 56.1906 23.8458C56.2401 23.7245 56.2625 22.8664 56.2266 22.4846C56.2086 22.3363 56.2086 22.1297 56.2266 22.0219C56.2445 21.8871 56.2266 21.7793 56.1727 21.6625C56.1277 21.5726 56.0154 21.3255 55.9166 21.1144C55.8178 20.9033 55.6291 20.5079 55.4988 20.2384C55.373 19.9643 55.2697 19.7307 55.2697 19.7083C55.2742 19.6903 55.2562 19.6768 55.2337 19.6768C55.2068 19.6768 55.1888 19.6499 55.1888 19.6139C55.1888 19.578 55.1753 19.5421 55.1574 19.5331C55.1035 19.5106 54.7845 18.8817 54.7845 18.8008C54.7845 18.7649 54.7665 18.7334 54.7441 18.7334C54.7216 18.7334 54.6902 18.684 54.6767 18.6211C54.6587 18.5582 54.6273 18.5088 54.6048 18.5088C54.5779 18.5088 54.5599 18.4594 54.5599 18.3965C54.5599 18.3336 54.4925 18.1898 54.4071 18.073C54.3263 17.9517 54.2454 17.8035 54.2319 17.7406C54.214 17.6777 54.1511 17.5519 54.0882 17.4576C54.0253 17.3677 53.9759 17.2644 53.9759 17.224C53.9759 17.1386 53.6614 16.4872 53.621 16.4872C53.603 16.4872 53.5536 16.4153 53.5132 16.33C53.4727 16.2446 53.4053 16.1727 53.3694 16.1727C53.3335 16.1727 53.2301 16.0694 53.1403 15.9481C53.0504 15.8223 52.9516 15.7235 52.9202 15.7235C52.8842 15.7235 52.7809 15.6292 52.6865 15.5124C52.3766 15.1305 51.9363 14.7352 51.6847 14.6139C51.55 14.5465 51.3478 14.4252 51.24 14.3443C51.0154 14.1781 50.4853 13.9984 49.5958 13.7962C49.2723 13.7244 48.9354 13.63 48.841 13.5896C48.7377 13.5492 48.6119 13.5312 48.5266 13.5447C48.4232 13.5626 48.3154 13.5402 48.1357 13.4503C48.0009 13.3874 47.8437 13.3156 47.7898 13.2931C47.7314 13.2706 47.6865 13.2212 47.6865 13.1763C47.6865 13.0101 47.5158 12.5653 47.4304 12.4934C47.381 12.453 47.2956 12.3542 47.2417 12.2733L47.1429 12.1296L47.2327 12.0128C47.2867 11.9454 47.3271 11.8645 47.3271 11.8286C47.3271 11.7702 47.1564 11.4916 47.1025 11.4692C47.0665 11.4467 47.107 10.9436 47.1519 10.8896C47.1788 10.8537 47.1654 10.7818 47.107 10.683C47.0441 10.5842 47.0126 10.4359 47.0081 10.2652C46.9991 10.1169 46.9857 9.97319 46.9677 9.95073C46.8913 9.83842 46.7835 9.47004 46.806 9.41164C46.8194 9.3757 46.8105 9.34425 46.788 9.34425C46.7296 9.34425 46.4735 8.93544 46.4735 8.83661C46.4735 8.79618 46.4511 8.76023 46.4286 8.76023C46.3567 8.76023 46.0917 8.44577 46.0917 8.36041C46.0917 8.31998 46.0602 8.29302 46.0198 8.29302C45.9794 8.29752 45.8581 8.23013 45.7547 8.14927C45.6469 8.06391 45.5481 7.99652 45.5301 7.99652C45.5121 7.99652 45.4852 7.9516 45.4717 7.90218C45.4537 7.8348 45.4223 7.81234 45.3684 7.8348C45.274 7.87074 44.8023 7.72698 44.7529 7.64611C44.726 7.60568 44.6721 7.5967 44.5822 7.61467C44.4924 7.63713 44.4295 7.62365 44.3756 7.56525C44.3082 7.50236 44.2363 7.49337 43.8544 7.51583C43.5445 7.5338 43.3827 7.56525 43.3288 7.61467C43.2884 7.65061 43.239 7.66858 43.2255 7.6551C43.2075 7.63713 43.1671 7.64611 43.1357 7.67756C43.0997 7.70452 43.0368 7.71799 42.9964 7.70002C42.9515 7.68205 42.9155 7.70002 42.8976 7.74495C42.8661 7.8303 42.646 7.95609 42.4528 7.99652C42.3719 8.01 42.318 8.05043 42.318 8.09536C42.318 8.18071 42.1383 8.33345 41.9631 8.40084C41.9002 8.42331 41.8284 8.49069 41.8059 8.54909C41.7834 8.60749 41.6936 8.73328 41.6037 8.82762C41.5139 8.92196 41.4465 9.0208 41.451 9.04775C41.46 9.11065 41.2533 9.52395 41.2129 9.52395C41.1949 9.52395 41.168 9.64974 41.15 9.80248C41.132 9.95971 41.1051 10.1035 41.0871 10.1304C41.0736 10.1529 41.0557 10.2877 41.0467 10.4224C41.0287 10.7773 41.0242 10.8268 40.9838 10.8268C40.9658 10.8268 40.9478 10.8672 40.9478 10.9166C40.9478 10.966 40.9658 11.0064 40.9838 11.0064C41.0062 11.0064 41.0152 11.1188 41.0018 11.2535C40.9838 11.4602 40.9973 11.5141 41.0646 11.5635C41.141 11.6219 41.141 11.6354 41.0691 11.7971C40.9928 11.9813 40.8939 12.3137 40.876 12.4665C40.867 12.5159 40.84 12.6552 40.8131 12.781C40.7457 13.0864 40.7457 13.0954 40.8535 13.4638C40.9029 13.6435 40.9344 13.8142 40.9209 13.8502C40.9074 13.8861 40.9254 13.9265 40.9613 13.94C40.9973 13.9535 41.0646 14.0748 41.1051 14.2051C41.2084 14.515 41.3836 14.8654 41.5004 14.9912C41.6172 15.1215 41.7205 15.1215 41.9227 14.9822C42.0979 14.8654 42.1338 14.8699 42.2057 15.0047C42.2462 15.0766 42.2102 15.117 41.9497 15.3057C41.5992 15.5483 41.6217 15.5258 41.3432 15.8942L41.132 16.1727L38.805 13.2437C37.5201 11.6309 35.8669 9.54192 35.1302 8.603C33.423 6.42867 33.4994 6.51852 33.2793 6.45113C33.1984 6.42418 33.167 6.44215 33.1265 6.53199ZM41.7565 14.3848C41.7565 14.4297 41.7385 14.4656 41.716 14.4656C41.6666 14.4656 41.6172 14.2859 41.6532 14.2275C41.6846 14.1736 41.7565 14.2814 41.7565 14.3848Z" fill="#253643"/>
</g>
<defs>
<clipPath id="clip0_44_372">
<rect width="57.5425" height="41.5385" fill="white" transform="translate(0.923096)"/>
</clipPath>
</defs>
</svg>
