<svg width="63" height="42" viewBox="0 0 63 42" fill="none" xmlns="http://www.w3.org/2000/svg">
<path d="M29.3969 5.17838C29.3969 5.35297 29.4206 5.38713 30.1072 6.10067L30.8174 6.84078V7.11405C30.8174 7.26587 30.808 7.39111 30.7938 7.39111C30.7796 7.39111 30.254 7.18616 29.6289 6.93187C28.6393 6.53714 28.4641 6.47642 28.2936 6.4878L28.0948 6.49919V7.69475V8.89031L28.2984 8.9017C28.4688 8.91308 28.6724 8.85236 29.6337 8.51456C30.254 8.29443 30.7748 8.11225 30.789 8.11225C30.8032 8.11225 30.8174 8.41968 30.8174 8.79163V9.47101L30.5097 9.51276C29.539 9.6494 28.6061 10.1542 28.251 10.7387C27.5692 11.8583 28.5399 13.0653 30.4007 13.4069C30.8979 13.498 31.7692 13.4904 32.2616 13.3917C33.7674 13.0805 34.7239 12.1658 34.5203 11.2207C34.3498 10.4275 33.4928 9.79362 32.2616 9.55451L31.9302 9.48999L31.916 8.84097L31.9065 8.18816L32.0107 8.22231C32.0722 8.24129 32.5789 8.41968 33.1376 8.62083C33.9615 8.91688 34.1936 8.9852 34.3782 8.9852H34.6055V7.84657V6.70794H34.3924C34.2125 6.70794 33.99 6.78385 33.0429 7.16339L31.9065 7.61884V7.23171V6.84078L32.6168 6.10067C33.3034 5.38713 33.327 5.35297 33.327 5.17838V4.99999H31.362H29.3969V5.17838ZM30.8174 10.5793V11.1865L30.6896 11.1638C30.0598 11.0537 29.4395 10.8791 29.2264 10.7501C29.1412 10.7007 29.1507 10.6893 29.3827 10.5148C29.6526 10.306 30.093 10.1162 30.486 10.0327C30.628 10.0024 30.7606 9.9758 30.7843 9.9758C30.8032 9.97201 30.8174 10.2453 30.8174 10.5793ZM32.5457 10.177C32.7304 10.2491 32.9577 10.3553 33.0571 10.4199C33.2892 10.5679 33.5307 10.8108 33.4833 10.8488C33.3649 10.936 32.2474 11.1865 31.9728 11.1865C31.9207 11.1865 31.9065 11.0803 31.9065 10.5945V10.0024L32.0628 10.0289C32.1433 10.0441 32.3658 10.1086 32.5457 10.177ZM31.8828 12.2113C32.3516 12.3138 32.9672 12.5377 32.9246 12.5909C32.8677 12.663 32.3374 12.8565 32.0391 12.9135C31.6555 12.9856 30.9263 12.9856 30.5381 12.9135C30.1687 12.8414 29.6857 12.644 29.3969 12.4428L29.1838 12.2948L29.3211 12.2531C29.8704 12.0823 31.1868 12.0595 31.8828 12.2113Z" fill="#253643"/>
<path d="M24.7282 11.9229C24.0558 12.0595 23.6012 12.4884 23.6959 12.9021C23.7622 13.1906 23.9847 13.3955 24.4251 13.5815C24.7376 13.7105 25.3863 13.7295 25.7699 13.6194C27.1715 13.2247 26.7974 11.976 25.2537 11.8887C25.0975 11.8773 24.8607 11.8925 24.7282 11.9229Z" fill="#253643"/>
<path d="M37.0442 11.9077C36.7316 11.9608 36.5044 12.0557 36.2865 12.2151C35.652 12.6819 35.9077 13.3651 36.8121 13.6194C37.2004 13.7295 37.7876 13.7105 38.1569 13.5701C38.8482 13.312 39.0755 12.811 38.7014 12.3593C38.5689 12.1923 38.2327 12.0064 37.9675 11.9456C37.7213 11.8887 37.262 11.8697 37.0442 11.9077Z" fill="#253643"/>
<path d="M20.779 12.5492C20.3765 12.6554 20.0782 12.849 19.9551 13.0919C19.8557 13.2817 19.8604 13.4335 19.9788 13.6309C20.0972 13.8358 20.2108 13.9231 20.5423 14.0559C20.7696 14.1508 20.8595 14.1622 21.2289 14.166C21.5935 14.166 21.6929 14.1508 21.9155 14.0673C22.4505 13.8586 22.6873 13.5436 22.5736 13.183C22.5073 12.9629 22.3132 12.7845 22.0054 12.6478C21.7829 12.553 21.6929 12.534 21.3236 12.5264C21.0915 12.5226 20.8453 12.5302 20.779 12.5492Z" fill="#253643"/>
<path d="M40.8038 12.5643C40.3539 12.6972 40.0367 12.9553 39.9799 13.2285C39.8236 13.9838 41.2915 14.4696 42.2243 13.9724C42.8967 13.6195 42.8162 12.9477 42.068 12.6402C41.8692 12.5568 41.7508 12.5378 41.4004 12.5264C41.121 12.5188 40.9127 12.5302 40.8038 12.5643Z" fill="#253643"/>
<path d="M17.3461 13.5738C17.0904 13.6231 16.8536 13.7332 16.6879 13.8812C16.0155 14.4771 17.0288 15.2438 18.1368 14.9857C18.4067 14.9249 18.7287 14.7124 18.8187 14.5378C19.1217 13.9647 18.2552 13.3992 17.3461 13.5738Z" fill="#253643"/>
<path d="M44.4262 13.608C43.3987 13.9002 43.4744 14.7846 44.5446 15.0047C45.681 15.2362 46.5996 14.3709 45.8088 13.813C45.5721 13.646 45.3401 13.5776 44.9755 13.5549C44.7529 13.5435 44.6014 13.5549 44.4262 13.608Z" fill="#253643"/>
<path d="M26.5559 13.8851C23.6438 14.2001 21.7308 14.5303 19.1455 15.1565C15.3432 16.0826 11.3136 17.5059 8.43467 18.9482C7.70546 19.3125 6.93364 19.7604 6.93838 19.8211C6.93838 19.8591 7.84752 20.4056 7.91381 20.4094C7.93275 20.4094 8.14583 20.2994 8.38258 20.1627C9.3154 19.6238 10.6744 18.9937 12.2938 18.3447C15.9398 16.8797 19.9173 15.7828 23.8332 15.1565C24.6619 15.0237 26.1818 14.8225 26.2055 14.8415C26.215 14.8453 26.3618 15.0541 26.537 15.3046C27.0815 16.0826 27.4603 16.8303 27.8107 17.8096L28.0143 18.3789L28.7293 18.3903L29.4396 18.4016L29.3449 18.1246C28.843 16.6519 28.3837 15.7221 27.5645 14.5151C27.0484 13.7636 27.1431 13.8206 26.5559 13.8851Z" fill="#253643"/>
<path d="M35.0696 14.4392C34.222 15.6879 33.8479 16.4128 33.3934 17.6767C33.2797 17.9993 33.1708 18.2954 33.1566 18.3295C33.1329 18.394 33.185 18.3978 33.8432 18.3978H34.5535L34.6292 18.1777C34.8328 17.5818 35.3016 16.5039 35.5431 16.0826C35.7515 15.7259 36.296 14.906 36.3765 14.8415C36.386 14.8339 37.1673 14.9288 37.8444 15.0199C40.8038 15.4298 44.0947 16.2003 47.1488 17.2023C49.8431 18.0828 52.8073 19.3353 54.3083 20.2234C54.4835 20.3259 54.635 20.4094 54.654 20.4094C54.6682 20.4094 54.9097 20.2766 55.1891 20.1172L55.691 19.8249L55.5063 19.6997C55.2411 19.5175 54.0952 18.9102 53.4276 18.599C49.3365 16.6823 43.8722 15.0351 39.1276 14.2836C38.0385 14.1128 35.8462 13.8433 35.5289 13.8433C35.5005 13.8433 35.2922 14.1128 35.0696 14.4392Z" fill="#253643"/>
<path d="M30.7465 13.9761C30.3298 14.1014 30.0599 14.3746 30.0599 14.6783C30.0599 15.3691 31.4425 15.6955 32.1954 15.1793C32.56 14.9288 32.6216 14.6176 32.3706 14.3177C32.1433 14.0482 31.8545 13.942 31.3384 13.9306C31.0779 13.923 30.8696 13.942 30.7465 13.9761Z" fill="#253643"/>
<path d="M14.0078 14.6061C13.3781 14.8339 13.2218 15.3007 13.6622 15.6423C13.8989 15.8245 14.2162 15.9042 14.6139 15.8852C15.1821 15.8586 15.5799 15.6271 15.6509 15.2741C15.703 15.0047 15.3952 14.6896 14.9596 14.572C14.7039 14.4999 14.2493 14.5189 14.0078 14.6061Z" fill="#253643"/>
<path d="M47.5656 14.5836C47.1962 14.6974 46.9169 14.9669 46.9169 15.2098C46.9169 15.4034 47.0968 15.6273 47.3525 15.7526C47.6224 15.8892 48.1101 15.931 48.4605 15.855C48.7541 15.7867 49.0903 15.54 49.1424 15.3503C49.2181 15.0618 49.0335 14.7923 48.6452 14.6291C48.399 14.5304 47.8213 14.5039 47.5656 14.5836Z" fill="#253643"/>
<path d="M10.7501 15.8778C10.3761 16.0258 10.2151 16.2573 10.2861 16.5495C10.3192 16.69 10.5371 16.8911 10.7596 16.9822C10.9585 17.0657 11.4509 17.0885 11.7066 17.0316C12.1801 16.9253 12.4737 16.5837 12.3553 16.2763C12.289 16.0979 11.986 15.874 11.7398 15.817C11.4178 15.7449 11.0153 15.7715 10.7501 15.8778Z" fill="#253643"/>
<path d="M50.7806 15.8358C50.2976 15.9725 50.0514 16.3824 50.274 16.6746C50.4634 16.9213 50.828 17.0693 51.2447 17.0693C51.5809 17.0693 51.8176 17.0086 52.0118 16.872C52.4947 16.5304 52.3858 16.0787 51.7703 15.851C51.543 15.7675 51.0505 15.7599 50.7806 15.8358Z" fill="#253643"/>
<path d="M31.0068 15.8891C30.4812 15.9802 30.1403 16.3332 30.2539 16.671C30.4007 17.0961 31.2625 17.3162 31.8402 17.0771C32.6831 16.7279 32.4037 15.9575 31.4093 15.8778C31.2815 15.8702 31.0968 15.874 31.0068 15.8891Z" fill="#253643"/>
<path d="M8.17892 17.1225C7.56335 17.2554 7.33607 17.6918 7.71488 18.0068C7.92795 18.1814 8.21206 18.2573 8.54825 18.2384C8.89865 18.2194 9.15435 18.1207 9.30113 17.9461C9.68941 17.4869 8.96494 16.9479 8.17892 17.1225Z" fill="#253643"/>
<path d="M53.8774 17.1073C53.4654 17.1718 53.2097 17.3616 53.1813 17.6273C53.1529 17.8512 53.2855 18.0296 53.5649 18.1473C53.7969 18.2421 54.2325 18.2725 54.4693 18.208C54.8386 18.1093 55.1132 17.8057 55.0375 17.5741C54.938 17.2477 54.384 17.0238 53.8774 17.1073Z" fill="#253643"/>
<path d="M15.6415 17.4375C14.6518 18.523 14.505 20.0108 15.22 21.7909C15.2863 21.9541 15.329 22.0945 15.3195 22.1021C15.31 22.1097 15.0496 22.0679 14.7371 22.0072C13.9274 21.8478 13.397 21.7985 12.6915 21.825C11.9481 21.8516 11.4225 21.9503 10.859 22.1742C10.1109 22.4665 9.62315 22.8498 9.30117 23.3887C9.1165 23.6924 8.98865 24.1099 8.98865 24.3945C8.98865 24.9145 9.29643 25.5825 9.7368 26.0038C10.1251 26.3795 10.7548 26.7515 11.3704 26.9678L11.6024 27.0513L11.5598 26.8502C11.5409 26.7439 11.5219 26.4555 11.5219 26.2163C11.5219 25.852 11.5409 25.7381 11.6356 25.5332C11.9954 24.7475 12.7909 24.3832 14.1499 24.3794C14.6282 24.3794 14.8081 24.3945 15.078 24.4629C15.9019 24.664 16.3517 25.1233 16.4086 25.8178C16.5033 26.9299 15.2721 28.1444 13.5817 28.6151C12.9614 28.7859 12.4926 28.8466 11.5882 28.8656C8.90815 28.9187 7.01885 28.3076 5.80193 26.9944C5.35683 26.5086 4.70812 25.351 4.78861 25.1802C4.83123 25.0891 5.02063 25.1005 5.54149 25.2257C6.45063 25.4421 7.12302 25.704 8.08425 26.205C8.30206 26.3188 8.49146 26.3985 8.50567 26.3871C8.54829 26.353 8.38729 25.5711 8.20262 24.9335C8.01322 24.2655 7.56812 23.161 7.31242 22.7132C7.17511 22.4778 6.96676 22.1894 6.82944 22.0452C6.80577 22.0224 6.45537 22.2084 5.87769 22.5613C5.24318 22.9447 4.76967 23.1534 4.18252 23.3052C3.39176 23.5102 3.39649 23.5633 4.14937 22.6638C4.78388 21.9047 5.27159 21.3658 5.74984 20.8914L5.96765 20.6712L5.59832 20.694C4.74126 20.7509 3.73269 20.8724 2.41159 21.0773C1.63977 21.195 1.00527 21.2975 1.00053 21.3013C0.991061 21.3051 1.10944 21.6049 1.26096 21.9693C1.5498 22.66 1.86232 23.2787 2.05172 23.5444L2.16537 23.7L1.94282 24.0492C1.725 24.3945 1.72027 24.4097 1.72027 24.7475C1.72027 25.0398 1.73921 25.1233 1.82917 25.2637C1.98543 25.499 2.31215 25.7647 2.80934 26.0645C3.19288 26.2961 3.25918 26.3568 3.45805 26.6376C4.1257 27.5979 4.74126 29.1388 4.86911 30.1712C4.94487 30.7785 4.87858 31.1125 4.59921 31.5679C4.41928 31.8602 4.37192 31.974 4.35772 32.1828C4.3151 32.7331 4.56133 33.0102 5.48467 33.4428C6.14759 33.7541 6.96676 34.2361 7.61547 34.6877C8.1458 35.0597 8.22156 35.0977 8.41097 35.0977C8.50094 35.0977 8.91289 34.9876 9.33431 34.8547C10.6554 34.4373 11.9907 34.1336 13.8658 33.83C23.3502 32.2852 39.2318 32.2852 48.7162 33.83C50.5913 34.1336 51.9266 34.4373 53.2477 34.8547C53.6691 34.9876 54.081 35.0977 54.171 35.0977C54.3604 35.0977 54.4362 35.0597 54.9665 34.6877C55.6152 34.2361 56.4344 33.7541 57.0973 33.4428C58.0206 33.0102 58.2669 32.7331 58.2243 32.1828C58.21 31.974 58.1627 31.8602 57.9828 31.5679C57.6987 31.1125 57.6324 30.7633 57.7129 30.1636C57.8502 29.1236 58.4657 27.5865 59.1239 26.6376C59.3228 26.353 59.3891 26.2961 59.7821 26.0607C60.2556 25.7723 60.6013 25.4876 60.7575 25.2523C60.8428 25.1271 60.8617 25.0322 60.8617 24.7475C60.8617 24.4097 60.857 24.3945 60.6392 24.0492L60.4119 23.6962L60.5255 23.5444C60.7197 23.2787 61.0322 22.66 61.321 21.9693C61.4725 21.6049 61.5909 21.3051 61.5814 21.3013C61.5767 21.2975 60.9422 21.195 60.1704 21.0773C58.8493 20.8724 57.8407 20.7509 56.9837 20.694L56.6143 20.6712L56.8321 20.8914C57.3104 21.3658 57.7981 21.9047 58.4326 22.6638C59.1855 23.5633 59.1902 23.5102 58.3995 23.3052C57.7271 23.1307 57.2962 22.9371 56.5291 22.4589C56.1219 22.2046 55.7762 22.0224 55.7525 22.0452C55.6152 22.1894 55.4069 22.4778 55.2696 22.7132C55.0139 23.161 54.5688 24.2655 54.3794 24.9335C54.1947 25.5711 54.0337 26.353 54.0763 26.3871C54.0905 26.3985 54.2799 26.3188 54.4977 26.205C55.459 25.704 56.1313 25.4421 57.0405 25.2257C57.7886 25.0436 57.8833 25.0777 57.7365 25.4535C57.443 26.2163 56.8227 27.04 56.1787 27.5372C54.9381 28.4898 53.295 28.9111 50.9938 28.8656C50.0893 28.8466 49.6206 28.7859 49.0003 28.6151C47.3098 28.1444 46.0787 26.9261 46.1734 25.8178C46.2066 25.4459 46.2965 25.2295 46.5285 24.9828C46.7558 24.7399 47.0778 24.5653 47.504 24.4629C47.7739 24.3945 47.9538 24.3794 48.4321 24.3794C49.791 24.3832 50.5865 24.7475 50.9464 25.5332C51.0411 25.7381 51.06 25.852 51.06 26.2163C51.06 26.4555 51.0411 26.7439 51.0222 26.8502L50.9795 27.0513L51.2116 26.9678C51.8271 26.7515 52.4569 26.3795 52.8452 26.0038C53.2855 25.5825 53.5933 24.9145 53.5933 24.3945C53.5933 24.1099 53.4655 23.6924 53.2808 23.3887C52.9588 22.8498 52.4711 22.4665 51.723 22.1742C51.1595 21.9503 50.6339 21.8516 49.8905 21.825C49.1849 21.7985 48.6546 21.8478 47.8449 22.0072C47.5324 22.0679 47.272 22.1097 47.2625 22.1021C47.253 22.0945 47.2956 21.9541 47.3619 21.7909C47.987 20.2309 47.9586 18.9101 47.272 17.8778C47.0778 17.5855 46.7937 17.2591 46.7322 17.2591C46.6611 17.2591 45.4253 18.041 45.0654 18.3105C43.9574 19.1493 43.517 20.1512 43.6922 21.4303C43.7254 21.6656 43.7443 21.8668 43.7301 21.8744C43.7159 21.8858 43.5407 21.8174 43.3324 21.7263C42.4564 21.3278 41.9213 21.1381 41.3768 21.0356C40.9695 20.9597 40.7186 20.9635 40.1882 21.0508C39.1655 21.2216 38.5783 21.4341 38.1332 21.7947C37.7923 22.0679 37.6171 22.3146 37.494 22.7094C37.2383 23.5026 37.5366 24.201 38.441 24.9259C38.6777 25.1157 39.2886 25.4952 39.3549 25.4952C39.3691 25.4952 39.3927 25.4231 39.4117 25.332C39.62 24.2655 40.1172 23.8252 41.2678 23.7C42.1249 23.6089 42.9867 23.81 43.4271 24.2048C43.7585 24.5008 43.858 24.7399 43.858 25.2675C43.8627 25.6888 43.858 25.7153 43.7064 25.9583C43.2187 26.7553 41.7224 27.4461 39.9799 27.6814C39.2744 27.7763 38.0574 27.7687 37.333 27.6624C34.6813 27.2791 32.6784 25.8823 32.4842 24.2883L32.4464 23.9732L32.5884 23.9998C33.0951 24.0833 34.0421 24.4401 34.8613 24.8538C35.2543 25.0511 35.3632 25.0891 35.6047 25.1043L35.884 25.1271V23.0282V20.9331L35.5857 20.9483C35.2164 20.9673 34.9796 21.0773 34.0705 21.6542C33.3934 22.0869 33.0809 22.2425 32.811 22.2881C32.6642 22.3146 32.6547 22.3071 32.6878 22.2463C32.7068 22.2046 32.7636 22.0755 32.8157 21.9579C32.8678 21.8364 33.1093 21.4265 33.3555 21.047C34.132 19.8362 34.4588 19.2935 34.473 19.1948L34.4872 19.0999H31.291H28.0948L28.109 19.1948C28.1232 19.2935 28.4499 19.8362 29.2265 21.047C29.4727 21.4265 29.7142 21.8364 29.7663 21.9579C29.8184 22.0755 29.8752 22.2046 29.8941 22.2463C29.9273 22.3071 29.9178 22.3146 29.771 22.2881C29.5011 22.2425 29.1886 22.0869 28.5115 21.6542C27.6023 21.0773 27.3656 20.9673 26.9962 20.9483L26.6979 20.9331V23.0282V25.1271L26.9773 25.1043C27.2188 25.0891 27.3277 25.0511 27.7207 24.8538C28.5399 24.4401 29.4869 24.0833 29.9936 23.9998L30.1356 23.9732L30.0977 24.2883C29.9036 25.8823 27.9007 27.2791 25.249 27.6624C24.5103 27.7725 23.3502 27.7801 22.6115 27.6814C22.0528 27.6093 21.2478 27.4157 20.7506 27.2411C19.9362 26.9451 19.1549 26.4137 18.8708 25.9545C18.724 25.7153 18.7193 25.685 18.724 25.2675C18.724 24.7399 18.8235 24.5008 19.1549 24.2048C19.5953 23.81 20.4571 23.6089 21.3141 23.7C22.46 23.8252 22.9667 24.2693 23.175 25.332C23.194 25.4231 23.2176 25.4952 23.2318 25.4952C23.2981 25.4952 23.909 25.1119 24.141 24.9259C25.0454 24.201 25.3437 23.5026 25.088 22.7094C24.9649 22.3146 24.7897 22.0679 24.4488 21.7947C24.0037 21.4341 23.4165 21.2216 22.3937 21.0508C21.8634 20.9635 21.6124 20.9597 21.2052 21.0356C20.6607 21.1381 20.1256 21.3278 19.2496 21.7263C19.0413 21.8174 18.8661 21.8858 18.8519 21.8744C18.8377 21.8668 18.8566 21.6656 18.8898 21.4303C19.0839 20.0146 18.5536 18.9823 17.1378 18.041C16.6311 17.7032 15.8972 17.2591 15.8498 17.2591C15.8261 17.2591 15.7362 17.3388 15.6415 17.4375ZM31.684 22.7132C31.7598 22.7435 31.8497 22.827 31.8923 22.9067C31.9586 23.0358 31.9586 23.0585 31.8781 23.18C31.7645 23.347 31.4283 23.4685 31.1821 23.4305C30.7938 23.3736 30.5618 23.1345 30.6802 22.9105C30.8127 22.6486 31.291 22.5538 31.684 22.7132ZM3.03189 24.2731C3.56222 24.5539 3.79424 25.4459 3.36808 25.5749C3.12659 25.647 2.77146 25.4269 2.59153 25.0853C2.28848 24.5198 2.55838 24.0226 3.03189 24.2731ZM59.9384 24.2427C60.1278 24.3224 60.1751 24.645 60.0473 24.9487C59.8673 25.3776 59.5264 25.6432 59.2328 25.5825C58.9771 25.5294 58.9108 25.0853 59.1097 24.7437C59.3607 24.3148 59.6685 24.1251 59.9384 24.2427ZM31.4094 28.2962C31.4615 28.3532 31.7787 28.672 32.1196 29.006C32.4606 29.34 32.7541 29.636 32.7731 29.6588C32.7968 29.6892 32.5363 29.9776 32.0675 30.4369C31.6603 30.8392 31.3099 31.1732 31.2957 31.1808C31.2531 31.1922 29.7994 29.7537 29.7994 29.693C29.7994 29.6474 31.2436 28.1938 31.291 28.1938C31.3052 28.1938 31.3573 28.2393 31.4094 28.2962ZM25.32 28.7783C25.5094 28.8542 25.7036 29.0515 25.7036 29.1616C25.7036 29.488 25.2206 29.7233 24.7376 29.636C24.4772 29.5905 24.2594 29.4576 24.1836 29.302C24.0984 29.1161 24.283 28.8542 24.5671 28.7631C24.7471 28.7061 25.1685 28.7137 25.32 28.7783ZM38.1427 28.82C38.3179 28.9225 38.441 29.1312 38.4078 29.2603C38.3463 29.5032 37.8538 29.7119 37.4845 29.6512C37.1388 29.5905 36.8784 29.3817 36.8784 29.1654C36.8784 29.0553 37.0299 28.8921 37.2288 28.7896C37.4277 28.691 37.9533 28.7061 38.1427 28.82ZM19.5432 28.8352C22.2659 29.0591 22.9856 30.5963 20.7649 31.4502C19.7847 31.826 18.6814 31.9512 17.5497 31.8146C16.1623 31.6476 15.2674 31.1125 15.2769 30.4483C15.2863 29.6816 16.5696 28.9984 18.2979 28.839C18.7761 28.7934 19.0081 28.7934 19.5432 28.8352ZM44.8523 28.9149C46.2965 29.1502 47.3004 29.7765 47.3051 30.4483C47.3146 31.1125 46.4196 31.6476 45.0323 31.8146C43.9053 31.9512 42.7926 31.826 41.8171 31.4502C40.7233 31.029 40.2593 30.3913 40.6239 29.8068C41.0169 29.173 42.3475 28.7669 43.8627 28.82C44.1515 28.8314 44.5966 28.8731 44.8523 28.9149ZM11.7682 30.2357C12.0996 30.3572 12.2133 30.657 12.0096 30.8657C11.8913 30.9872 11.5788 31.1087 11.3846 31.1125C10.8164 31.1162 10.4234 30.7177 10.6791 30.4027C10.859 30.1826 11.3941 30.0991 11.7682 30.2357ZM51.6046 30.2243C51.9881 30.3496 52.1018 30.6608 51.8413 30.8961C51.6093 31.1087 51.2116 31.1656 50.8659 31.0403C50.506 30.9075 50.3829 30.676 50.5439 30.4255C50.6907 30.1978 51.2116 30.0991 51.6046 30.2243ZM25.8361 30.805C25.9214 30.8506 26.0208 30.9417 26.0634 31.0062C26.3144 31.3971 25.5757 31.788 24.9791 31.5755C24.4582 31.3895 24.4535 30.9379 24.9696 30.7481C25.1874 30.6646 25.6467 30.695 25.8361 30.805ZM37.6029 30.7481C37.9533 30.8657 38.1001 31.1428 37.9249 31.3667C37.7875 31.5413 37.5697 31.621 37.2288 31.6248C36.9921 31.6248 36.9068 31.6059 36.7458 31.5224C36.4949 31.3857 36.4049 31.1846 36.5185 31.0062C36.5896 30.8961 36.7742 30.7671 36.9258 30.7215C37.0631 30.6798 37.4514 30.695 37.6029 30.7481ZM6.93835 31.5907C7.37398 31.8108 7.73858 31.9968 7.74332 32.0006C7.75752 32.0082 7.29822 33.2417 7.27454 33.2607C7.26034 33.2683 5.79719 32.5509 5.6362 32.4598C5.61252 32.4446 6.0955 31.1884 6.12865 31.1884C6.13812 31.1884 6.50272 31.3705 6.93835 31.5907ZM56.548 31.3667C56.6996 31.7501 56.9552 32.4522 56.9458 32.4598C56.7848 32.5509 55.3216 33.2683 55.3074 33.2607C55.298 33.2531 55.1891 32.9646 55.0612 32.6268C54.886 32.1638 54.8434 32.0006 54.886 31.9778C54.9192 31.9626 55.2743 31.7804 55.6768 31.5717C56.0793 31.363 56.4249 31.1922 56.4439 31.1922C56.4581 31.1884 56.5054 31.2681 56.548 31.3667ZM12.4405 32.2131C12.8004 32.4143 12.7341 32.7938 12.308 32.9722C12.1517 33.0367 11.6829 33.0291 11.5077 32.957C10.9537 32.7293 11.0958 32.1904 11.735 32.0993C11.9576 32.0689 12.2795 32.1182 12.4405 32.2131ZM51.1169 32.1676C51.5288 32.346 51.5051 32.7786 51.0742 32.957C50.8991 33.0291 50.4303 33.0367 50.274 32.9722C49.8479 32.7938 49.7816 32.4143 50.1414 32.2093C50.3829 32.0727 50.847 32.0537 51.1169 32.1676Z" fill="#253643"/>
<path d="M30.9689 17.6502C30.8837 17.6692 30.7511 17.7451 30.6754 17.8172C30.2066 18.2423 30.9974 18.7433 31.7029 18.47C32.1859 18.284 32.1575 17.8589 31.6508 17.673C31.4377 17.597 31.2104 17.5857 30.9689 17.6502Z" fill="#253643"/>
<path d="M5.78774 18.546C5.39 18.6902 5.27635 18.9673 5.51784 19.1988C5.7546 19.4265 6.18076 19.4872 6.55483 19.3506C6.80579 19.2595 6.90523 19.1418 6.90523 18.9445C6.90523 18.5839 6.28967 18.3638 5.78774 18.546Z" fill="#253643"/>
<path d="M56.1172 18.5156C55.9278 18.5611 55.6768 18.7547 55.6721 18.8648C55.6531 19.1191 55.7478 19.2481 56.0225 19.3506C56.4013 19.4872 56.8227 19.4265 57.0642 19.1988C57.4667 18.8154 56.8227 18.3524 56.1172 18.5156Z" fill="#253643"/>
<path d="M28.0711 33.2608C24.2499 33.3633 20.8785 33.5682 17.796 33.8832C13.5107 34.3235 10.305 34.9308 9.63738 35.4318C9.32013 35.6747 9.5853 35.8644 10.6223 36.1377C12.9614 36.7488 18.2174 37.3219 23.9279 37.58C26.7406 37.709 27.9007 37.7356 31.291 37.7356C35.278 37.7356 37.6408 37.6673 41.1164 37.4471C47.6697 37.041 53.0725 36.2136 53.0725 35.6177C53.0725 35.0978 49.6395 34.3804 44.7861 33.8832C42.2859 33.6289 39.9657 33.4695 36.7601 33.3291C35.491 33.276 29.3401 33.2266 28.0711 33.2608Z" fill="#253643"/>
</svg>
