<svg width="33" height="39" viewBox="0 0 33 39" fill="none" xmlns="http://www.w3.org/2000/svg">
<g clip-path="url(#clip0_177_2)">
<path d="M16.2762 3.08526C16.0475 3.24139 13.5523 4.45137 12.5347 4.90302C11.5673 5.32958 10.2235 5.82863 9.1947 6.14088C7.62228 6.61763 6.70503 6.81557 3.85572 7.29232C3.01375 7.43172 2.28051 7.56275 2.22754 7.58506L2.13275 7.62409L2.14948 8.69188C2.16621 9.69555 2.19687 10.4622 2.29445 12.3915C2.38646 14.1981 2.48682 15.9183 2.54537 16.685C2.65689 18.118 2.94126 19.5538 3.64384 22.2526C3.96445 23.4765 4.78133 25.679 5.36959 26.8974C5.8324 27.8564 7.04238 29.8889 7.71986 30.8535C7.8035 30.9706 7.97078 31.2076 8.09345 31.3804C8.50607 31.9659 8.80996 32.3646 9.125 32.7298C9.61847 33.3041 10.4409 34.1824 10.7727 34.4862C11.5199 35.1749 12.8219 36.3207 13.4742 36.8644C13.7503 37.093 14.096 37.33 14.634 37.659C14.8264 37.7761 15.0718 37.935 15.1777 38.013C15.3673 38.1524 16.1953 38.5901 16.3905 38.6515C16.4825 38.6822 16.5159 38.6766 16.7111 38.5985C17.0986 38.4424 17.5837 38.1859 17.988 37.921C18.2027 37.7761 18.4619 37.6116 18.5623 37.553C19.2481 37.146 19.8643 36.6525 21.2666 35.3923C22.2285 34.5281 22.4013 34.3608 22.9617 33.7669C23.9849 32.6796 24.2581 32.3451 25.1029 31.1546C27.2246 28.1687 28.5907 25.2859 29.4884 21.9125C30.1714 19.3503 30.4614 17.7026 30.5785 15.7092C30.7151 13.3645 30.8406 10.4846 30.8991 8.29041L30.9186 7.60457L30.8517 7.58506C30.5227 7.49305 30.2802 7.44566 29.7282 7.35923C29.0535 7.25607 27.6846 7.0191 26.8147 6.85461C24.5397 6.42526 22.2564 5.68644 19.9702 4.64095C18.7881 4.10008 16.8142 3.11872 16.7111 3.02114C16.6944 3.0072 16.6191 2.99604 16.5438 2.99883C16.4351 2.99883 16.3737 3.02114 16.2762 3.08526Z" fill="#CF9521"/>
</g>
<path d="M3.64816 2.65217C3.58719 2.71478 3.49564 2.84319 3.44478 2.94311L3.35392 3.12185L3.44718 3.11924C3.65679 3.11805 3.84542 3.15505 4.00578 3.23106C4.17538 3.30867 4.18319 3.3184 4.50396 3.72772C4.68289 3.95548 4.89856 4.25865 4.98534 4.40135C5.12448 4.63892 5.14472 4.65918 5.22642 4.68176C5.34897 4.71563 5.3795 4.75859 5.33736 4.84957C5.3121 4.91212 5.32344 4.95593 5.40527 5.07266C5.48958 5.20238 5.51905 5.22424 5.62384 5.25083C5.71016 5.27422 5.7574 5.30335 5.78455 5.352C5.9439 5.66421 6.16895 6.00877 6.49468 6.44405C6.70734 6.72369 6.98726 7.12172 7.11948 7.33089C7.25171 7.54007 7.50643 7.89187 7.68341 8.1172C7.86501 8.34333 8.01146 8.52569 8.01146 8.52569C8.00879 8.52732 7.72536 8.71857 7.3753 8.95053C6.70715 9.39491 6.38479 9.63168 5.97249 9.97414C5.47258 10.3955 4.8818 10.9956 4.96102 11.0052C4.97949 11.0084 5.24774 10.9714 5.5604 10.9253L6.12018 10.8407L6.1604 10.6929C6.24798 10.3568 6.5994 9.91376 7.07229 9.53791C7.19384 9.44192 7.50873 9.22058 7.77279 9.04478L8.25684 8.72736L8.3939 8.86834C8.53363 9.0077 8.62234 9.20721 8.73349 9.61771C8.76186 9.72724 8.99156 10.0182 11.3021 12.8509C15.351 17.8183 19.3366 22.712 23.0018 27.2216C24.8768 29.5266 26.5801 31.603 26.7887 31.838C27.1988 32.2943 27.5615 32.6272 27.9317 32.8903C28.2109 33.0895 28.9102 33.5249 28.9288 33.5135C28.9528 33.4989 28.6778 32.6666 28.5564 32.3819C28.3973 32.0007 28.2044 31.6764 27.8451 31.1746C27.669 30.9306 26.0176 28.8297 24.1746 26.5052C20.57 21.9622 16.6629 17.0278 12.6882 12.0042C10.4255 9.14228 10.1905 8.85455 10.0822 8.79387C9.67784 8.56246 9.49317 8.42157 9.39076 8.25942L9.28569 8.09889L9.79317 7.81065C10.0729 7.6543 10.4217 7.47024 10.564 7.40505C11.1306 7.14592 11.7281 7.00929 12.111 7.05081L12.2933 7.06996L12.5757 6.64008C12.7322 6.39954 12.8638 6.19233 12.8666 6.17609C12.8833 6.10788 12.0348 6.387 11.4099 6.65273C10.9 6.87361 10.5347 7.05689 9.82747 7.45264C9.45788 7.66028 9.15492 7.82722 9.15225 7.82885C9.14959 7.83047 9.01485 7.6627 8.85349 7.45683C8.69142 7.25501 8.40134 6.92843 8.21137 6.73641C8.02141 6.54438 7.69723 6.19513 7.49592 5.9593C7.14602 5.55328 6.73608 5.13682 6.52336 4.96594C6.43565 4.8963 6.42536 4.87359 6.43732 4.7648C6.44733 4.65358 6.43508 4.62844 6.32412 4.51501C6.21973 4.40481 6.18759 4.38458 6.11671 4.39526C6.01669 4.40923 5.94159 4.33551 5.9555 4.22915C5.96424 4.16583 5.94081 4.13665 5.73965 3.94059C5.6175 3.82311 5.38334 3.57111 5.21913 3.38147C4.78969 2.88631 4.71697 2.67703 4.86 2.2961L4.90518 2.17427L4.70143 2.18275C4.32963 2.19965 3.91138 2.38628 3.64816 2.65217Z" fill="#253643"/>
<path d="M28.5694 2.31002C28.4811 2.28145 28.3114 2.2503 28.1864 2.24277L27.9627 2.22938L27.9974 2.30493C28.0703 2.47632 28.0949 2.64357 28.0678 2.80099C28.0422 2.96652 28.0344 2.97625 27.7029 3.37905C27.5187 3.60355 27.2657 3.88394 27.1416 4.00384C26.9331 4.19908 26.9182 4.22259 26.9218 4.29727C26.9272 4.40929 26.8914 4.449 26.7789 4.44555C26.7029 4.44622 26.6596 4.4705 26.5617 4.57746C26.4508 4.6909 26.4373 4.72253 26.4445 4.8175C26.4488 4.89624 26.4335 4.94492 26.3904 4.9838C26.1084 5.22111 25.814 5.52334 25.4563 5.93908C25.2277 6.20896 24.8945 6.57442 24.7143 6.75429C24.5341 6.93415 24.242 7.26317 24.0597 7.48524C23.8781 7.71137 23.7317 7.89373 23.7317 7.89373C23.729 7.8921 23.426 7.72516 23.0564 7.51752C22.3492 7.12178 21.9839 6.93849 21.474 6.71761C20.8491 6.45188 20.0006 6.17276 20.0173 6.24097C20.0201 6.25721 20.1517 6.46442 20.3082 6.70496L20.5907 7.13484L20.7637 7.1173C21.1559 7.07417 21.7533 7.2108 22.3199 7.46993C22.4649 7.53675 22.8111 7.71919 23.0907 7.87553L23.5982 8.16378L23.4931 8.3243C23.3907 8.48645 23.2061 8.62735 22.8017 8.85876C22.6934 8.91944 22.4584 9.20716 20.1958 12.0691C16.2269 17.0854 12.3159 22.0247 8.70928 26.5701C6.86632 28.8946 5.211 31.0004 5.02905 31.2516C4.6776 31.7437 4.44281 32.1548 4.28581 32.5482C4.1666 32.845 3.93642 33.567 3.95508 33.5784C3.97906 33.5931 4.78188 33.0831 5.04716 32.8864C5.40354 32.6257 5.68708 32.3567 6.10498 31.8907C6.30772 31.663 8.00711 29.5915 9.88206 27.2864C13.5453 22.7793 17.5271 17.8905 21.5818 12.9157C23.8923 10.0831 24.1221 9.79212 24.1504 9.6826C24.2616 9.27209 24.3503 9.07258 24.49 8.93322L24.6271 8.79224L25.1111 9.10966C25.3752 9.28546 25.6927 9.50843 25.8116 9.6028C26.2845 9.97864 26.6359 10.4216 26.7221 10.7497L26.7637 10.9056L27.3235 10.9902C27.6362 11.0362 27.9044 11.0733 27.9229 11.07C28.0021 11.0604 27.4113 10.4604 26.9114 10.039C26.4991 9.69657 26.1768 9.45979 25.5086 9.01541C25.1585 8.78346 24.8751 8.5922 24.8724 8.59057C24.8698 8.58895 25.0045 8.42117 25.1712 8.21855C25.3333 8.01674 25.586 7.66736 25.728 7.44603C25.87 7.2247 26.1356 6.83964 26.3209 6.59403C26.6388 6.16848 26.9474 5.69015 27.0589 5.4574C27.1039 5.3617 27.1249 5.3455 27.2462 5.31813C27.3695 5.28832 27.3924 5.26969 27.4767 5.13997C27.5598 5.01675 27.5706 4.98349 27.5348 4.92904C27.4856 4.85185 27.5394 4.76509 27.6587 4.74015C27.7299 4.72566 27.7534 4.69649 27.8959 4.4646C27.9807 4.32434 28.1723 4.04628 28.3205 3.84687C28.7073 3.32567 28.9079 3.19454 29.3673 3.18156L29.514 3.17696L29.4352 3.01286C29.2899 2.7139 28.9459 2.43488 28.5694 2.31002Z" fill="#253643"/>
<defs>
<clipPath id="clip0_177_2">
<rect width="28.7719" height="35.6861" fill="white" transform="translate(2.14111 2.99609)"/>
</clipPath>
</defs>
</svg>
