<svg width="42" height="42" viewBox="0 0 42 42" fill="none" xmlns="http://www.w3.org/2000/svg">
<g clip-path="url(#clip0_44_307)">
<path d="M0 18.6246V37.266L1.19423 37.5986C1.84976 37.7785 3.20301 38.1586 4.20252 38.4402C6.41575 39.0613 8.70361 39.6993 11.0986 40.3712C12.0883 40.6495 13.1755 40.9515 13.5097 41.0466C13.8472 41.1416 14.1458 41.2196 14.1815 41.2196C14.2139 41.2196 15.0544 40.9923 16.0507 40.714C19.0752 39.869 21.4864 39.1936 21.759 39.1156C21.9018 39.0748 22.7196 38.8475 23.5763 38.6065C24.4331 38.3656 25.6305 38.0296 26.2374 37.8599C26.8442 37.6902 27.37 37.5579 27.4057 37.5647C27.4413 37.5714 28.2169 37.7886 29.1256 38.0432C31.1019 38.5997 34.5548 39.5669 38.8612 40.7751C40.8375 41.3282 41.3957 41.4843 41.4833 41.5115C41.5352 41.5285 41.5385 40.6257 41.5385 22.8871V4.24226L39.9905 3.81127C39.137 3.57372 37.5923 3.14272 36.5571 2.85086C35.5219 2.5624 33.8571 2.09407 32.8576 1.8158C28.4311 0.573715 27.4121 0.292038 27.3472 0.292038C27.3115 0.292038 26.8507 0.414211 26.3218 0.560139C25.7928 0.709461 24.4266 1.09295 23.2843 1.41195C19.5198 2.46738 17.7252 2.96964 15.9404 3.46851L14.1815 3.96059L13.685 3.82145C12.9548 3.61444 4.28365 1.18457 1.21695 0.325977C0.610096 0.156292 0.0876202 0.0103645 0.0584135 0.000183105C0.00324519 -0.0167847 0 0.885929 0 18.6246ZM5.46815 2.41308C12.8932 4.4934 14.1361 4.83955 14.1912 4.83955C14.2172 4.83955 14.7332 4.70041 15.34 4.53073C15.9436 4.36104 17.1444 4.02507 18.0108 3.78412C18.8773 3.53978 20.396 3.11557 21.3858 2.83729C23.7029 2.1891 26.1952 1.49 26.841 1.30674L27.3505 1.16421L28.5123 1.49C29.1548 1.66987 30.4724 2.03978 31.4459 2.31127C34.0745 3.0477 36.132 3.62462 37.985 4.14385C38.8969 4.39837 39.8769 4.67326 40.1657 4.7581C40.4546 4.83955 40.7012 4.90742 40.7109 4.90742C40.7304 4.90742 40.7337 40.3543 40.7109 40.378C40.7012 40.3882 40.5746 40.361 40.4254 40.3203C40.2793 40.2762 39.3123 40.0047 38.277 39.7162C37.2418 39.4244 36.278 39.1563 36.1352 39.1156C35.9924 39.0748 35.285 38.878 34.5613 38.6744C33.8376 38.4708 32.4227 38.0737 31.4135 37.792C30.4042 37.5104 29.0932 37.1405 28.4993 36.9742C27.9022 36.8079 27.3829 36.6721 27.3472 36.6721C27.3083 36.6721 27.0584 36.7332 26.7891 36.8113C26.2633 36.9606 24.2221 37.5307 21.3534 38.335C20.3636 38.6133 18.8448 39.0375 17.9784 39.2819C17.1119 39.5228 15.9047 39.8622 15.2978 40.0319L14.188 40.3407L12.4907 39.8656C10.2581 39.2445 7.55481 38.4843 5.5006 37.9074C4.59195 37.6529 3.69303 37.4018 3.50481 37.3509C1.83678 36.8859 0.915144 36.6246 0.866466 36.5975C0.814543 36.5703 0.811298 35.6914 0.811298 18.8588C0.811298 9.11896 0.817789 1.14385 0.827524 1.13367C0.84375 1.12009 1.53822 1.31014 5.46815 2.41308Z" fill="#253643"/>
<path d="M1.81731 3.19018V3.91981L5.39675 7.79877C7.36334 9.93339 8.98269 11.6777 8.99243 11.6777C9.00541 11.6777 10.0017 10.6121 11.2089 9.30896L13.4026 6.94357V6.33271C13.4026 6.00013 13.3897 5.71846 13.3767 5.70828C13.3637 5.70149 12.7179 5.51484 11.9423 5.29764C9.97247 4.74448 5.39675 3.46506 3.09916 2.82027C2.45661 2.6404 1.90493 2.48769 1.87572 2.47751C1.82055 2.46054 1.81731 2.51144 1.81731 3.19018Z" fill="#253643"/>
<path d="M28.1358 7.94137C28.1358 11.2841 28.1488 13.4255 28.165 13.4255C28.1813 13.4255 28.3987 13.3441 28.6453 13.2423C28.8919 13.1405 30.1154 12.6416 31.3648 12.1359C32.6142 11.6269 34.4023 10.904 35.3401 10.5206C36.278 10.1405 37.6442 9.5873 38.3744 9.28866L39.7049 8.74907L39.7147 7.22531L39.7212 5.70155L37.9947 5.21965C37.0439 4.95155 35.4537 4.51038 34.4639 4.2321C31.3486 3.35993 28.2526 2.49115 28.1942 2.47418C28.1391 2.45721 28.1358 2.7321 28.1358 7.94137Z" fill="#253643"/>
<path d="M25.5721 2.73557C25.2606 2.8238 24.4136 3.06136 23.6899 3.26498C22.9662 3.46521 22.3529 3.65186 22.3237 3.6824C22.2912 3.71294 20.6329 6.42109 18.6306 9.70616L14.9928 15.6722V16.7141V17.7525L15.7554 18.1496L16.518 18.55L16.6348 18.3532C17.008 17.7491 26.2147 2.64394 26.2341 2.60661C26.2698 2.54213 26.1887 2.5591 25.5721 2.73557Z" fill="#253643"/>
<path d="M24.9523 6.13923C24.0826 7.56117 21.9764 11.0125 20.2727 13.8089L17.1703 18.8926L18.7345 19.7139C19.5945 20.1652 20.3084 20.5352 20.3214 20.5352C20.3409 20.5352 24.5629 16.4729 26.0816 14.9933L26.5457 14.5385V9.0442C26.5457 6.02384 26.5424 3.54986 26.5392 3.54986C26.5327 3.54986 25.8188 4.71389 24.9523 6.13923Z" fill="#253643"/>
<path d="M20.5421 4.14393C19.7957 4.35434 16.2 5.36565 15.4893 5.56248L14.9928 5.69823V6.32945V6.96067L16.677 7.84302C17.6052 8.32832 18.371 8.7152 18.3775 8.70841C18.4067 8.67108 21.256 3.98443 21.256 3.97085C21.256 3.9437 21.1684 3.96406 20.5421 4.14393Z" fill="#253643"/>
<path d="M1.82055 10.904V16.7683L4.6179 19.7988C6.15612 21.4651 7.42499 22.8294 7.43797 22.8362C7.46069 22.843 12.851 17.0364 12.851 16.9991C12.851 16.9889 12.7439 16.8599 12.6141 16.7208C8.66466 12.4278 1.84326 5.04319 1.83353 5.04319C1.82379 5.04319 1.8173 7.68007 1.82055 10.904Z" fill="#253643"/>
<path d="M14.9928 11.1585C14.9928 12.8587 14.9993 14.2433 15.0058 14.2365C15.0382 14.1958 17.8193 9.61777 17.8323 9.58383C17.8453 9.55329 17.3683 9.28858 16.4369 8.7999C15.6613 8.39605 15.0187 8.06347 15.009 8.06347C14.9993 8.06347 14.9928 9.45487 14.9928 11.1585Z" fill="#253643"/>
<path d="M11.5204 10.3881C10.5112 11.4774 9.6869 12.3869 9.6869 12.4107C9.6869 12.4548 13.3345 16.4356 13.3799 16.4424C13.3929 16.4458 13.4027 14.6369 13.4027 12.4243C13.4027 10.2116 13.3929 8.40278 13.3799 8.40278C13.3637 8.40278 12.5297 9.29532 11.5204 10.3881Z" fill="#253643"/>
<path d="M38.5853 10.2321C37.4041 10.7174 36.0087 11.2842 32.6466 12.645C31.3875 13.1541 30.3458 13.5817 30.3328 13.5952C30.3198 13.6088 32.1664 15.6314 34.4347 18.0952C36.7064 20.5557 38.8255 22.8532 39.1435 23.1993L39.7212 23.8271V16.809C39.7212 11.2197 39.7114 9.79434 39.6822 9.79774C39.6595 9.80113 39.1662 9.99457 38.5853 10.2321Z" fill="#253643"/>
<path d="M29.4014 13.9652C29.3203 13.9991 29.0023 14.1281 28.6972 14.2537L28.1358 14.481V19.7819V25.0828L33.8019 31.2254C36.9173 34.6021 39.5232 37.429 39.5946 37.5037L39.7212 37.6394V31.2763V24.9132L34.9637 19.7548C32.3481 16.9177 30.0602 14.4403 29.8785 14.2503L29.5475 13.9075L29.4014 13.9652Z" fill="#253643"/>
<path d="M23.8359 18.1969C22.3529 19.6257 21.1165 20.8236 21.0808 20.8576C21.0224 20.9153 21.1035 20.9628 23.784 22.3644L26.5457 23.8101V19.7037C26.5457 17.4469 26.5424 15.5974 26.5359 15.5974C26.5327 15.5974 25.3157 16.7682 23.8359 18.1969Z" fill="#253643"/>
<path d="M1.81731 23.3859C1.81731 26.4199 1.8238 28.9006 1.83029 28.9006C1.85949 28.9006 6.91226 23.4334 6.91226 23.3995C6.91226 23.3724 1.85625 17.8712 1.83029 17.8712C1.8238 17.8712 1.81731 20.352 1.81731 23.3859Z" fill="#253643"/>
<path d="M10.7189 20.7388C9.25854 22.3168 8.06106 23.62 8.05457 23.637C8.04808 23.6539 8.83991 25.1166 9.81022 26.8881C10.7805 28.6562 11.9748 30.8315 12.4615 31.7173C12.9451 32.603 13.3572 33.3428 13.3734 33.3632C13.3897 33.3802 13.4027 30.2919 13.4027 25.6324C13.4027 21.3632 13.3962 17.8711 13.3897 17.8711C13.3832 17.8711 12.1792 19.1607 10.7189 20.7388Z" fill="#253643"/>
<path d="M14.9928 27.3633V35.8747L15.0674 35.9697L15.1388 36.0647L18.0919 34.6869C19.7178 33.9301 22.2815 32.7355 23.7937 32.0296L26.5457 30.7502L26.5359 27.8215L26.5294 24.8928L20.7757 21.8758C17.6117 20.2129 15.0155 18.8554 15.0058 18.8554C14.9993 18.8554 14.9928 22.6835 14.9928 27.3633Z" fill="#253643"/>
<path d="M4.65036 27.2852L1.81731 30.3429V33.0748V35.8067L2.94663 36.1223C3.56647 36.2953 4.88401 36.6619 5.8738 36.9401C6.86358 37.2184 8.34014 37.6324 9.15144 37.8598C11.2251 38.4367 13.2793 39.0137 13.3475 39.034C13.3994 39.051 13.4026 38.939 13.4026 37.0114V34.9718L10.4787 29.637C8.86911 26.7015 7.53534 24.2852 7.51586 24.2648C7.4899 24.2377 6.70781 25.0589 4.65036 27.2852Z" fill="#253643"/>
<path d="M28.1423 28.3305L28.152 30.4448L30.1641 30.6382C31.2707 30.7468 32.2313 30.8282 32.2994 30.8248L32.4227 30.8181L30.3101 28.5273C29.1483 27.2683 28.1845 26.2298 28.1683 26.2264C28.1456 26.2163 28.1391 26.9459 28.1423 28.3305Z" fill="#253643"/>
<path d="M28.1488 31.3611C28.1423 31.3781 28.1391 32.386 28.1423 33.6009L28.152 35.8068L28.8984 36.0138C29.6189 36.2174 31.9197 36.8622 35.7296 37.9278C36.7388 38.2095 38.0174 38.5692 38.5756 38.7253C39.1338 38.8815 39.6206 39.0172 39.6563 39.0308C39.7212 39.0511 39.7244 39.041 39.7147 38.8848L39.7049 38.7152L36.8329 35.5998C35.2525 33.8894 33.8214 32.3351 33.6526 32.1518L33.3444 31.8158L31.0403 31.5986C29.7746 31.4765 28.6064 31.3679 28.4474 31.3509C28.2526 31.3339 28.1585 31.3339 28.1488 31.3611Z" fill="#253643"/>
<path d="M24.128 32.7491C22.8429 33.3463 20.4155 34.4798 18.7345 35.2638C17.0502 36.0477 15.6743 36.6993 15.6743 36.7129C15.6743 36.7298 15.9826 37.1303 16.359 37.6054C16.8523 38.2298 17.06 38.4674 17.0989 38.4572C17.1281 38.447 17.868 38.24 18.741 37.9957C19.6172 37.7479 20.951 37.3746 21.7103 37.1608C22.4697 36.9504 23.8684 36.5601 24.8192 36.292L26.5457 35.8101V33.7298C26.5457 32.0873 26.5359 31.6495 26.5067 31.6529C26.484 31.6529 25.4131 32.1484 24.128 32.7491Z" fill="#253643"/>
<path d="M14.9928 38.2536C14.9928 38.9561 14.9993 39.0511 15.0415 39.0341C15.1453 38.9934 15.9371 38.7762 15.9858 38.7762C16.015 38.7762 16.0312 38.7626 16.0248 38.7423C16.0118 38.7016 15.0252 37.4527 15.0058 37.4527C14.9993 37.4527 14.9928 37.8124 14.9928 38.2536Z" fill="#253643"/>
</g>
<defs>
<clipPath id="clip0_44_307">
<rect width="41.5385" height="41.5385" fill="white" transform="translate(0.230713)"/>
</clipPath>
</defs>
</svg>
