<svg width="41" height="33" viewBox="0 0 41 33" fill="none" xmlns="http://www.w3.org/2000/svg">
<path d="M19.5221 0.00658798C15.181 0.190899 11.0868 1.41964 7.75884 3.53409C6.88356 4.09214 5.74859 4.95225 5.05927 5.58454C2.42704 8.00106 0.756647 10.9014 0.192368 14.0449C0.0352674 14.9127 0 15.3428 0 16.3744C0 17.406 0.0352674 17.8361 0.192368 18.7039C0.759853 21.8653 2.42704 24.7554 5.08813 27.1873C5.51134 27.5738 6.51806 28.3751 6.98616 28.7027C10.0127 30.8044 13.6453 32.1381 17.5824 32.5886C18.6693 32.714 19.2079 32.7422 20.5 32.7422C21.7921 32.7422 22.3307 32.714 23.4176 32.5886C27.0341 32.1739 30.4454 30.9989 33.2764 29.1916C34.4659 28.4314 35.6329 27.497 36.582 26.5473C38.5922 24.5301 40.0157 22.0727 40.6313 19.5486C40.907 18.4248 41 17.6159 41 16.3744C41 15.3428 40.9647 14.9127 40.8076 14.0449C40.2434 10.9014 38.573 8.00106 35.9407 5.58454C35.5303 5.2108 34.5268 4.407 34.0427 4.0691C30.7115 1.7473 26.7263 0.382889 22.3115 0.0552254C21.7921 0.0168266 20.0159 -0.0138931 19.5221 0.00658798ZM21.4298 4.79098C22.1832 4.95737 22.9142 5.36951 23.3118 5.85589C23.6067 6.21683 23.7414 6.61361 23.7414 7.12046C23.7446 7.57356 23.6516 7.89354 23.4144 8.26728C23.0296 8.87653 22.4205 9.28867 21.6318 9.4781C21.3753 9.53954 21.2855 9.54722 20.6924 9.56002C20.2852 9.56514 19.9421 9.56002 19.8011 9.5421C18.8905 9.42946 17.9415 8.88421 17.5375 8.24169C17.4093 8.0369 17.2939 7.68619 17.265 7.40717C17.1849 6.63153 17.4926 5.95572 18.1916 5.38999C18.5507 5.09817 18.9963 4.8985 19.5221 4.79354C19.8235 4.73466 19.8684 4.73211 20.5641 4.73978C21.0771 4.7449 21.2663 4.75514 21.4298 4.79098ZM23.5779 18.9983V26.2811H24.7962H26.0145V27.1514V28.0218H20.5H14.9855V27.1514V26.2811H16.2038H17.4221V19.8686V13.4561H16.2038H14.9855V12.5858V11.7154H19.2817H23.5779V18.9983Z" fill="#253643"/>
</svg>
