<svg width="42" height="42" viewBox="0 0 42 42" fill="none" xmlns="http://www.w3.org/2000/svg">
<g clip-path="url(#clip0_44_280)">
<path d="M19.5523 0.0245323C18.7605 0.0732079 17.6701 0.209507 16.9399 0.352295C16.5862 0.420444 16.557 0.426933 15.9339 0.576214C11.2251 1.71527 6.98365 4.52561 4.05 8.44581C2.59291 10.3929 1.46358 12.6743 0.798317 15.0011C0.243389 16.9482 0.00324519 18.6941 0 20.7613C0 21.8582 0.0259615 22.2801 0.149279 23.2926C0.538702 26.4826 1.67127 29.559 3.4399 32.2363C4.4881 33.8232 5.71478 35.2154 7.17188 36.4713C8.5381 37.6493 9.87512 38.5385 11.5204 39.3563C12.5167 39.8528 13.1495 40.1189 14.0647 40.4272C15.7814 41.0016 17.0957 41.2742 19.1466 41.4721C19.8022 41.5338 21.798 41.5241 22.5541 41.4559C25.2346 41.206 27.4543 40.5992 29.7682 39.4828C35.6647 36.64 39.7958 31.3179 41.0971 24.8989C41.2561 24.1104 41.36 23.3802 41.4638 22.3028C41.5255 21.6602 41.5157 19.6515 41.4476 18.918C41.0744 14.9557 39.7633 11.4963 37.4528 8.39713C36.3916 6.97249 34.8663 5.43427 33.4093 4.32117C30.4788 2.07874 26.8572 0.589195 23.2843 0.154339C22.1712 0.021286 20.5486 -0.0371284 19.5523 0.0245323ZM21.4897 0.478859C25.4196 0.631382 28.8757 1.75097 32.1274 3.9285C33.7435 5.01239 35.4213 6.55711 36.6739 8.12129C38.7573 10.7174 40.156 13.8458 40.7466 17.2241C40.9706 18.5156 41.0484 19.5736 41.0257 21.0858C41.0063 22.4001 40.9673 22.8967 40.7888 24.039C40.2501 27.4691 38.8028 30.7565 36.6415 33.45C35.96 34.3003 34.8501 35.4491 34.0421 36.1403C31.5822 38.2464 28.655 39.7619 25.6532 40.4888C21.7947 41.4202 17.8291 41.2352 14.0841 39.9501C13.0554 39.5997 11.5983 38.9279 10.6118 38.347C7.35036 36.4388 4.65361 33.6382 2.83954 30.2697C0.791827 26.4729 0.0356971 22.134 0.66851 17.8244C1.4149 12.7327 4.08245 8.07586 8.0643 4.91179C11.5107 2.17285 15.6094 0.641117 19.9255 0.482105C20.2825 0.469124 20.5972 0.456142 20.6232 0.452896C20.6492 0.44965 21.0418 0.462631 21.4897 0.478859Z" fill="#253643"/>
<path d="M20.5226 0.819483C20.4772 0.845444 20.409 0.907103 20.3766 0.955781C20.3181 1.04016 20.3149 1.13427 20.3052 2.4583C20.2987 3.75638 20.3019 3.8797 20.3538 3.9803C20.5161 4.29508 20.9445 4.32429 21.1554 4.03871C21.2203 3.94785 21.2236 3.91215 21.2236 2.5297C21.2236 0.968761 21.2203 0.955781 21.0288 0.835708C20.9055 0.757824 20.6492 0.751333 20.5226 0.819483Z" fill="#253643"/>
<path d="M10.7903 3.42548C10.6377 3.50012 10.5306 3.66887 10.5306 3.83113C10.5306 3.93822 10.6312 4.13618 11.118 5.00264C11.9196 6.42079 11.9066 6.40132 12.0429 6.46622C12.3382 6.60577 12.7504 6.29747 12.6919 5.98269C12.6822 5.92428 12.3674 5.34014 11.9975 4.68137C11.4198 3.65913 11.3062 3.4774 11.2089 3.42548C11.0726 3.35084 10.9363 3.35084 10.7903 3.42548Z" fill="#253643"/>
<path d="M30.3198 3.41577C30.2127 3.47743 30.2192 3.4612 29.4858 4.82418C28.9666 5.79125 28.866 5.99894 28.866 6.11253C28.866 6.35916 29.0964 6.57983 29.3593 6.57983C29.5702 6.57983 29.6546 6.45976 30.2712 5.31421C31.0987 3.7695 31.0565 3.87334 30.9624 3.64618C30.8715 3.42551 30.5243 3.29894 30.3198 3.41577Z" fill="#253643"/>
<path d="M13.2014 7.86487C13.1463 7.92004 13.1236 7.97196 13.1333 8.02064C13.143 8.06283 13.8667 9.33494 14.7429 10.8504C15.6191 12.366 17.1573 15.0303 18.1666 16.7697L19.9936 19.9337L19.906 20.0473C19.7373 20.2615 19.6691 20.4595 19.6691 20.745C19.6691 20.956 19.6853 21.0404 19.7535 21.1896C19.8638 21.4265 20.1169 21.6829 20.3571 21.7932C20.5161 21.8679 20.5843 21.8809 20.8341 21.8809C21.0873 21.8809 21.1554 21.8679 21.3274 21.7867C21.5643 21.6797 21.8044 21.4395 21.918 21.2059C22.0121 21.0111 22.0413 20.6964 21.9862 20.4724C21.8986 20.109 21.5351 19.7293 21.1911 19.6449L21.0451 19.606L21.0353 14.9913C21.0288 10.6622 21.0256 10.3767 20.9737 10.3215C20.899 10.2501 20.7043 10.2501 20.6297 10.3215C20.5778 10.3767 20.5745 10.6622 20.5648 15.0011L20.5583 19.6255L20.4739 19.6449C20.4285 19.6579 20.3798 19.6547 20.3636 19.6384C20.3474 19.6222 18.8091 16.9644 16.9432 13.7354C15.0739 10.5032 13.5227 7.84216 13.4935 7.81944C13.4059 7.75778 13.2923 7.77401 13.2014 7.86487Z" fill="#253643"/>
<path d="M3.53727 10.6395C3.33282 10.8212 3.30686 11.1262 3.4821 11.2917C3.53078 11.3404 4.11166 11.6779 4.77368 12.0446C5.84784 12.6417 5.99388 12.7131 6.12693 12.7131C6.44171 12.7131 6.66888 12.3464 6.53582 12.0511C6.4839 11.9408 6.44171 11.9148 5.11118 11.1782C4.07272 10.6038 3.94291 10.5389 3.80662 10.5389C3.68005 10.5389 3.63138 10.5583 3.53727 10.6395Z" fill="#253643"/>
<path d="M36.5052 11.1749C35.9178 11.5254 35.3758 11.8467 35.3012 11.8921C35.2233 11.9343 35.126 12.0154 35.0805 12.0706C34.9118 12.2718 35.0189 12.658 35.2785 12.7651C35.418 12.8235 35.4992 12.8235 35.6257 12.7586C35.9665 12.5833 37.985 11.3599 38.0564 11.282C38.2316 11.097 38.2154 10.8601 38.0174 10.6622C37.9103 10.5519 37.8779 10.5389 37.7351 10.5389C37.5826 10.5389 37.5079 10.5778 36.5052 11.1749Z" fill="#253643"/>
<path d="M0.957326 20.3816C0.798311 20.4854 0.759369 20.5828 0.77235 20.8067C0.782085 20.9787 0.795066 21.0079 0.902157 21.1052L1.02223 21.2156H2.46959C3.87151 21.2156 3.92343 21.2123 4.02728 21.1507C4.16358 21.0663 4.2512 20.8489 4.22199 20.6801C4.20901 20.6152 4.15059 20.5081 4.08894 20.4432L3.98184 20.3231L2.52475 20.3134L1.06766 20.3037L0.957326 20.3816Z" fill="#253643"/>
<path d="M37.4755 20.3718C37.1931 20.5406 37.2094 21.0274 37.4982 21.1734C37.5598 21.2058 37.933 21.2156 39.0234 21.2156C40.1138 21.2156 40.487 21.2058 40.5487 21.1734C40.8375 21.0274 40.8537 20.5406 40.5714 20.3718C40.474 20.3102 40.3994 20.3069 39.0234 20.3069C37.6475 20.3069 37.5728 20.3102 37.4755 20.3718Z" fill="#253643"/>
<path d="M5.90625 28.7736C5.58822 28.9261 3.50481 30.1983 3.44964 30.2697C3.35228 30.4027 3.3393 30.5682 3.42043 30.737C3.5113 30.9187 3.62488 30.9966 3.8131 30.9966C3.94615 30.9966 4.07272 30.9284 5.15986 30.2794C5.82188 29.8835 6.39628 29.5233 6.44171 29.4746C6.5488 29.361 6.55529 29.0884 6.45469 28.9521C6.29567 28.7347 6.1107 28.6763 5.90625 28.7736Z" fill="#253643"/>
<path d="M35.2655 28.8743C35.1 28.9782 35.0254 29.1209 35.0416 29.3189C35.0481 29.426 35.0773 29.5136 35.113 29.5558C35.1487 29.5947 35.7133 29.9322 36.3754 30.3087C37.3944 30.8928 37.5956 30.9934 37.7124 30.9967C37.9395 31.0032 38.144 30.8084 38.17 30.5586C38.1992 30.2957 38.1635 30.2697 36.82 29.5006C35.5121 28.7542 35.4797 28.7445 35.2655 28.8743Z" fill="#253643"/>
<path d="M29.0153 35.0045C28.8822 35.0921 28.7978 35.2414 28.7946 35.3939C28.7946 35.5043 28.8952 35.7055 29.4826 36.7504C29.859 37.4254 30.2127 38.016 30.2647 38.0647C30.4464 38.2367 30.7936 38.1621 30.9429 37.9219C31.0727 37.7077 31.0597 37.6785 30.3101 36.3383C29.9174 35.6373 29.5702 35.0564 29.5215 35.0175C29.4079 34.9201 29.1516 34.9169 29.0153 35.0045Z" fill="#253643"/>
<path d="M12.1532 35.0662C12.0559 35.1116 11.9261 35.3063 11.2868 36.3383C10.6085 37.4319 10.5339 37.5682 10.5306 37.6948C10.5306 37.8797 10.6118 38.0128 10.774 38.0907C10.9363 38.1686 11.0531 38.1718 11.1992 38.1037C11.316 38.0485 11.3225 38.042 12.3772 36.3253C12.8737 35.5205 12.8964 35.4523 12.7698 35.2446C12.6984 35.1246 12.4907 35.0077 12.3577 35.0077C12.309 35.0077 12.2149 35.0337 12.1532 35.0662Z" fill="#253643"/>
<path d="M20.6556 37.2696C20.5193 37.2956 20.3701 37.4319 20.3311 37.565C20.3117 37.6396 20.2987 38.2043 20.2987 39.0415C20.2987 40.5084 20.3019 40.544 20.4739 40.6771C20.6719 40.8329 21.0029 40.7842 21.1522 40.5765C21.2236 40.4759 21.2236 40.4759 21.2236 39.0156C21.2236 37.6364 21.2203 37.5487 21.1619 37.4644C21.0645 37.3183 20.8439 37.234 20.6556 37.2696Z" fill="#253643"/>
</g>
<defs>
<clipPath id="clip0_44_280">
<rect width="41.5385" height="41.5385" fill="white" transform="translate(0.230713)"/>
</clipPath>
</defs>
</svg>
